<svg width="173" height="29" viewBox="0 0 173 29" fill="none" xmlns="http://www.w3.org/2000/svg">
<path d="M6.496 23.428C6.76 23.452 7.06 23.476 7.396 23.5C7.756 23.5 8.176 23.5 8.656 23.5C11.464 23.5 13.54 22.792 14.884 21.376C16.252 19.96 16.936 18.004 16.936 15.508C16.936 12.892 16.288 10.912 14.992 9.568C13.696 8.224 11.644 7.552 8.836 7.552C8.452 7.552 8.056 7.564 7.648 7.588C7.24 7.588 6.856 7.612 6.496 7.66V23.428ZM22.732 15.508C22.732 17.668 22.396 19.552 21.724 21.16C21.052 22.768 20.092 24.1 18.844 25.156C17.62 26.212 16.12 27.004 14.344 27.532C12.568 28.06 10.576 28.324 8.368 28.324C7.36 28.324 6.184 28.276 4.84 28.18C3.496 28.108 2.176 27.94 0.88 27.676V3.376C2.176 3.136 3.52 2.98 4.912 2.908C6.328 2.812 7.54 2.764 8.548 2.764C10.684 2.764 12.616 3.004 14.344 3.484C16.096 3.964 17.596 4.72 18.844 5.752C20.092 6.784 21.052 8.104 21.724 9.712C22.396 11.32 22.732 13.252 22.732 15.508ZM44.775 18.496C44.775 19.984 44.559 21.352 44.127 22.6C43.695 23.824 43.071 24.88 42.255 25.768C41.439 26.632 40.455 27.304 39.303 27.784C38.175 28.264 36.903 28.504 35.487 28.504C34.095 28.504 32.823 28.264 31.671 27.784C30.543 27.304 29.571 26.632 28.755 25.768C27.939 24.88 27.303 23.824 26.847 22.6C26.391 21.352 26.163 19.984 26.163 18.496C26.163 17.008 26.391 15.652 26.847 14.428C27.327 13.204 27.975 12.16 28.791 11.296C29.631 10.432 30.615 9.76 31.743 9.28C32.895 8.8 34.143 8.56 35.487 8.56C36.855 8.56 38.103 8.8 39.231 9.28C40.383 9.76 41.367 10.432 42.183 11.296C42.999 12.16 43.635 13.204 44.091 14.428C44.547 15.652 44.775 17.008 44.775 18.496ZM39.303 18.496C39.303 16.84 38.967 15.544 38.295 14.608C37.647 13.648 36.711 13.168 35.487 13.168C34.263 13.168 33.315 13.648 32.643 14.608C31.971 15.544 31.635 16.84 31.635 18.496C31.635 20.152 31.971 21.472 32.643 22.456C33.315 23.416 34.263 23.896 35.487 23.896C36.711 23.896 37.647 23.416 38.295 22.456C38.967 21.472 39.303 20.152 39.303 18.496ZM60.0283 17.128C59.5483 18.952 59.0323 20.764 58.4803 22.564C57.9523 24.364 57.3883 26.176 56.7883 28H52.6123C52.1803 26.992 51.7123 25.792 51.2083 24.4C50.7043 23.008 50.1763 21.496 49.6243 19.864C49.0963 18.208 48.5443 16.468 47.9683 14.644C47.4163 12.796 46.8763 10.936 46.3483 9.064H52.0003C52.1923 9.928 52.3963 10.876 52.6123 11.908C52.8523 12.916 53.0923 13.96 53.3323 15.04C53.5963 16.12 53.8603 17.212 54.1243 18.316C54.4123 19.396 54.7003 20.44 54.9883 21.448C55.3003 20.392 55.6003 19.312 55.8883 18.208C56.2003 17.104 56.4883 16.024 56.7523 14.968C57.0403 13.888 57.3043 12.856 57.5443 11.872C57.8083 10.864 58.0363 9.928 58.2283 9.064H62.1163C62.3083 9.928 62.5243 10.864 62.7643 11.872C63.0043 12.856 63.2563 13.888 63.5203 14.968C63.7843 16.024 64.0603 17.104 64.3483 18.208C64.6363 19.312 64.9363 20.392 65.2483 21.448C65.5363 20.44 65.8243 19.396 66.1123 18.316C66.4003 17.212 66.6643 16.12 66.9043 15.04C67.1683 13.96 67.4083 12.916 67.6243 11.908C67.8643 10.876 68.0803 9.928 68.2723 9.064H73.8523C73.3243 10.936 72.7723 12.796 72.1963 14.644C71.6443 16.468 71.0923 18.208 70.5403 19.864C70.0123 21.496 69.4843 23.008 68.9563 24.4C68.4523 25.792 67.9843 26.992 67.5523 28H63.3763C62.7763 26.176 62.1883 24.364 61.6123 22.564C61.0363 20.764 60.5083 18.952 60.0283 17.128ZM76.7388 9.712C77.6508 9.448 78.8268 9.208 80.2668 8.992C81.7068 8.752 83.2188 8.632 84.8027 8.632C86.4108 8.632 87.7428 8.848 88.7988 9.28C89.8788 9.688 90.7308 10.276 91.3548 11.044C91.9788 11.812 92.4228 12.724 92.6868 13.78C92.9508 14.836 93.0828 16.012 93.0828 17.308V28H87.7188V17.956C87.7188 16.228 87.4908 15.004 87.0348 14.284C86.5788 13.564 85.7268 13.204 84.4788 13.204C84.0948 13.204 83.6868 13.228 83.2548 13.276C82.8228 13.3 82.4388 13.336 82.1028 13.384V28H76.7388V9.712ZM97.758 4.348L103.122 3.484V9.064H109.566V13.528H103.122V20.188C103.122 21.316 103.314 22.216 103.698 22.888C104.106 23.56 104.91 23.896 106.11 23.896C106.686 23.896 107.274 23.848 107.874 23.752C108.498 23.632 109.062 23.476 109.566 23.284L110.322 27.46C109.674 27.724 108.954 27.952 108.162 28.144C107.37 28.336 106.398 28.432 105.246 28.432C103.782 28.432 102.57 28.24 101.61 27.856C100.65 27.448 99.882 26.896 99.306 26.2C98.73 25.48 98.322 24.616 98.082 23.608C97.866 22.6 97.758 21.484 97.758 20.26V4.348ZM119.298 28H113.934V9.064H119.298V28ZM119.802 3.592C119.802 4.576 119.478 5.356 118.83 5.932C118.206 6.484 117.462 6.76 116.598 6.76C115.734 6.76 114.978 6.484 114.33 5.932C113.706 5.356 113.394 4.576 113.394 3.592C113.394 2.608 113.706 1.84 114.33 1.288C114.978 0.711999 115.734 0.423999 116.598 0.423999C117.462 0.423999 118.206 0.711999 118.83 1.288C119.478 1.84 119.802 2.608 119.802 3.592ZM134.744 17.956C134.744 16.228 134.516 15.004 134.06 14.284C133.628 13.564 132.872 13.204 131.792 13.204C131.456 13.204 131.108 13.228 130.748 13.276C130.388 13.3 130.04 13.336 129.704 13.384V28H124.34V9.712C124.796 9.592 125.324 9.472 125.924 9.352C126.548 9.208 127.196 9.088 127.868 8.992C128.564 8.872 129.272 8.788 129.992 8.74C130.712 8.668 131.42 8.632 132.116 8.632C133.484 8.632 134.588 8.812 135.428 9.172C136.292 9.508 137 9.916 137.552 10.396C138.32 9.844 139.196 9.412 140.18 9.1C141.188 8.788 142.112 8.632 142.952 8.632C144.464 8.632 145.7 8.848 146.66 9.28C147.644 9.688 148.424 10.276 149 11.044C149.576 11.812 149.972 12.724 150.188 13.78C150.404 14.836 150.512 16.012 150.512 17.308V28H145.148V17.956C145.148 16.228 144.92 15.004 144.464 14.284C144.032 13.564 143.276 13.204 142.196 13.204C141.908 13.204 141.5 13.276 140.972 13.42C140.468 13.564 140.048 13.744 139.712 13.96C139.88 14.512 139.988 15.1 140.036 15.724C140.084 16.324 140.108 16.972 140.108 17.668V28H134.744V17.956ZM154.483 18.676C154.483 16.996 154.735 15.532 155.239 14.284C155.767 13.012 156.451 11.956 157.291 11.116C158.131 10.276 159.091 9.64 160.171 9.208C161.275 8.776 162.403 8.56 163.555 8.56C166.243 8.56 168.367 9.388 169.927 11.044C171.487 12.676 172.267 15.088 172.267 18.28C172.267 18.592 172.255 18.94 172.231 19.324C172.207 19.684 172.183 20.008 172.159 20.296H159.991C160.111 21.4 160.627 22.276 161.539 22.924C162.451 23.572 163.675 23.896 165.211 23.896C166.195 23.896 167.155 23.812 168.091 23.644C169.051 23.452 169.831 23.224 170.431 22.96L171.151 27.316C170.863 27.46 170.479 27.604 169.999 27.748C169.519 27.892 168.979 28.012 168.379 28.108C167.803 28.228 167.179 28.324 166.507 28.396C165.835 28.468 165.163 28.504 164.491 28.504C162.787 28.504 161.299 28.252 160.027 27.748C158.779 27.244 157.735 26.56 156.895 25.696C156.079 24.808 155.467 23.764 155.059 22.564C154.675 21.364 154.483 20.068 154.483 18.676ZM167.083 16.624C167.059 16.168 166.975 15.724 166.831 15.292C166.711 14.86 166.507 14.476 166.219 14.14C165.955 13.804 165.607 13.528 165.175 13.312C164.767 13.096 164.251 12.988 163.627 12.988C163.027 12.988 162.511 13.096 162.079 13.312C161.647 13.504 161.287 13.768 160.999 14.104C160.711 14.44 160.483 14.836 160.315 15.292C160.171 15.724 160.063 16.168 159.991 16.624H167.083Z" fill="black"/>
</svg>
